<svg xmlns="http://www.w3.org/2000/svg" viewBox="0 0 2048 2048"><defs><style>.cls-1{fill:#21a4ac;}.cls-2{fill:#fff;}</style></defs><g id="Backgroud"><rect class="cls-1" width="2048" height="2048"/></g><g id="Sprial"><circle class="cls-2" cx="987.97" cy="1191.89" r="25.82" transform="translate(-22.81 19.28) rotate(-1.11)"/><circle class="cls-2" cx="1009.44" cy="1140.09" r="22.08" transform="translate(-369.68 494.48) rotate(-23.39)"/><circle class="cls-2" cx="1044.74" cy="1099.06" r="18.34" transform="translate(-468.04 994.58) rotate(-42.5)"/><path class="cls-2" d="M1101.56,1080.31a14.6,14.6,0,1,1-1.8-20.57A14.59,14.59,0,0,1,1101.56,1080.31Z" transform="translate(0 0)"/><path class="cls-2" d="M1151.22,1064.82a10.87,10.87,0,1,1-1.34-15.3A10.86,10.86,0,0,1,1151.22,1064.82Z" transform="translate(0 0)"/><path class="cls-2" d="M1204.27,1066.51a7.12,7.12,0,1,1-.88-10A7.12,7.12,0,0,1,1204.27,1066.51Z" transform="translate(0 0)"/><circle class="cls-2" cx="951.99" cy="1300.3" r="30.03" transform="translate(-425.14 463.29) rotate(-22.5)"/><circle class="cls-2" cx="932.4" cy="1238.12" r="25.68"/><circle class="cls-2" cx="933.17" cy="1175.19" r="21.33" transform="translate(-378.69 446.56) rotate(-22.5)"/><circle class="cls-2" cx="952.8" cy="1116.02" r="16.98"/><circle class="cls-2" cx="989.8" cy="1065.11" r="12.63" transform="translate(-463.24 1011.85) rotate(-45)"/><circle class="cls-2" cx="1042.67" cy="1026.96" r="8.28" transform="translate(-196.37 1805.79) rotate(-76.72)"/><circle class="cls-2" cx="1000.98" cy="1423.76" r="34.92" transform="translate(-403.48 395.87) rotate(-18.69)"/><circle class="cls-2" cx="937.05" cy="1383.02" r="29.86" transform="translate(-670.03 926.84) rotate(-40.03)"/><circle class="cls-2" cx="890.69" cy="1326.39" r="24.8" transform="translate(-253.06 210.83) rotate(-11.83)"/><circle class="cls-2" cx="863.95" cy="1259.01" r="19.75" transform="translate(-304.06 275.51) rotate(-15.44)"/><circle class="cls-2" cx="858.86" cy="1186.01" r="14.69" transform="translate(-397.5 1938.23) rotate(-85)"/><path class="cls-2" d="M884.82,1106.32a9.63,9.63,0,1,1-13.57-1.19A9.63,9.63,0,0,1,884.82,1106.32Z" transform="translate(0 0)"/><circle class="cls-2" cx="1136.89" cy="1497.13" r="40.6" transform="translate(-707.52 1860.53) rotate(-63.93)"/><circle class="cls-2" cx="1049.49" cy="1508.61" r="34.72" transform="translate(-769.13 1244.07) rotate(-46.9)"/><circle class="cls-2" cx="965.87" cy="1492.82" r="28.84" transform="translate(-681.57 823.98) rotate(-35)"/><circle class="cls-2" cx="891.69" cy="1452.79" r="22.96" transform="translate(-314.22 248.01) rotate(-13.49)"/><circle class="cls-2" cx="832.59" cy="1391.57" r="17.08" transform="translate(-288.32 219.72) rotate(-12.83)"/><path class="cls-2" d="M796.15,1301.18a11.2,11.2,0,1,1-13,9.09A11.21,11.21,0,0,1,796.15,1301.18Z" transform="translate(0 0)"/><circle class="cls-2" cx="1312.78" cy="1460.89" r="47.21" transform="translate(-483.9 667.46) rotate(-24.23)"/><circle class="cls-2" cx="1243.51" cy="1536.45" r="40.37" transform="translate(-562.43 2339.93) rotate(-75)"/><circle class="cls-2" cx="1157.23" cy="1584.88" r="33.54" transform="translate(-588.2 2481.81) rotate(-81.06)"/><circle class="cls-2" cx="1061.24" cy="1604.66" r="26.7" transform="translate(-138.96 101.1) rotate(-5.12)"/><circle class="cls-2" cx="962.84" cy="1594.31" r="19.86" transform="translate(-566.06 530.66) rotate(-24.05)"/><circle class="cls-2" cx="869.33" cy="1552.31" r="13.02" transform="translate(-855.08 1990.25) rotate(-75)"/><circle class="cls-2" cx="1442.38" cy="1297.15" r="54.9" transform="translate(-281.21 407.04) rotate(-14.65)"/><circle class="cls-2" cx="1437.15" cy="1416.22" r="46.95" transform="translate(-570.83 1218.45) rotate(-38.95)"/><circle class="cls-2" cx="1396.49" cy="1523.85" r="39" transform="translate(-357.14 2617.96) rotate(-79.46)"/><circle class="cls-2" cx="1325.77" cy="1613.22" r="31.04" transform="translate(-703.32 1120.33) rotate(-36.93)"/><circle class="cls-2" cx="1230.38" cy="1677.55" r="23.09" transform="translate(-346.06 320.03) rotate(-13.01)"/><circle class="cls-2" cx="1115.7" cy="1710.02" r="15.14" transform="matrix(0.15, -0.99, 0.99, 0.15, -744.85, 2551.05)"/><circle class="cls-2" cx="1435.43" cy="1054.43" r="63.83" transform="translate(60.46 2186.56) rotate(-75.77)"/><circle class="cls-2" cx="1519.77" cy="1164.4" r="54.59"/><circle class="cls-2" cx="1564" cy="1290.66" r="45.34" transform="matrix(0.57, -0.82, 0.82, 0.57, -385.26, 1849.48)"/><circle class="cls-2" cx="1567.81" cy="1423.13" r="36.1" transform="translate(-384.57 2242.61) rotate(-65)"/><circle class="cls-2" cx="1530.92" cy="1551.72" r="26.85" transform="matrix(0.42, -0.91, 0.91, 0.42, -522.41, 2283.41)"/><circle class="cls-2" cx="1453.04" cy="1666.36" r="17.61"/><circle class="cls-2" cx="1247.82" cy="843.42" r="74.22" transform="translate(-238.2 598.18) rotate(-24.68)"/><circle class="cls-2" cx="1405.15" cy="878.34" r="63.47" transform="translate(447.88 2230.95) rotate(-86.72)"/><circle class="cls-2" cx="1538.91" cy="957.75" r="52.72" transform="translate(-195.45 430.93) rotate(-15)"/><circle class="cls-2" cx="1641.31" cy="1072.9" r="41.97" transform="translate(-221.76 461.36) rotate(-15)"/><circle class="cls-2" cx="1704.57" cy="1215.01" r="31.22" transform="translate(-256.39 482.58) rotate(-15)"/><circle class="cls-2" cx="1720.88" cy="1375.34" r="20.48" transform="translate(265.26 3028.87) rotate(-87.27)"/><circle class="cls-2" cx="923" cy="795.69" r="86.31" transform="translate(-292.29 885.71) rotate(-45)"/><circle class="cls-2" cx="1089.24" cy="709.2" r="73.81" transform="translate(-182.45 977.93) rotate(-45)"/><circle class="cls-2" cx="1267.74" cy="679.96" r="61.31" transform="translate(-169.81 625.64) rotate(-26.04)"/><circle class="cls-2" cx="1445.02" cy="705.99" r="48.81" transform="translate(391.86 1921.45) rotate(-75.13)"/><circle class="cls-2" cx="1607.58" cy="785.3" r="36.31" transform="translate(-79.29 189.08) rotate(-6.57)"/><circle class="cls-2" cx="1741.95" cy="915.91" r="23.81" transform="translate(-215.78 714.44) rotate(-21.86)"/><circle class="cls-2" cx="597.99" cy="995.95" r="100.36"/><circle class="cls-2" cx="681.42" cy="794.66" r="85.82" transform="translate(-362.33 714.59) rotate(-45)"/><circle class="cls-2" cx="818.57" cy="635.2" r="71.29"/><circle class="cls-2" cx="995.93" cy="525.88" r="56.75" transform="matrix(0.82, -0.57, 0.57, 0.82, -122.38, 659.32)"/><circle class="cls-2" cx="1200.02" cy="475.02" r="42.22" transform="translate(60.32 1080.63) rotate(-49.58)"/><circle class="cls-2" cx="1417.33" cy="490.94" r="27.68" transform="translate(146.32 1287.42) rotate(-51.18)"/><circle class="cls-2" cx="458.16" cy="1417.26" r="116.7"/><circle class="cls-2" cx="382.03" cy="1175.6" r="99.79" transform="translate(-719.38 614.46) rotate(-45)"/><circle class="cls-2" cx="385.01" cy="931.05" r="82.89" transform="translate(-545.59 544.94) rotate(-45)"/><circle class="cls-2" cx="461.29" cy="701.11" r="65.99" transform="translate(-304.66 1044.13) rotate(-80.78)"/><circle class="cls-2" cx="605.06" cy="503.27" r="49.09" transform="translate(-23.76 976.52) rotate(-76.72)"/><circle class="cls-2" cx="810.53" cy="355.02" r="32.19"/></g></svg>