<?xml version="1.0" encoding="UTF-8"?>
<svg id="_レイヤー_1" xmlns="http://www.w3.org/2000/svg" version="1.1" viewBox="0 0 88.3 88.3">
  <!-- Generator: Adobe Illustrator 30.1.0, SVG Export Plug-In . SVG Version: 2.1.1 Build 136)  -->
  <defs>
    <style>
      .st0 {
        fill: #231815;
      }
    </style>
  </defs>
  <path class="st0" d="M1.65,86.78h18.05c.96,0,1.8-.53,2.34-1.27L71.72,3.86c.64-1.06-.11-2.34-1.38-2.34h-17.09c-.85,0-1.59.42-2.02,1.17L.8,85.29c-.32.64.11,1.49.85,1.49Z"/>
  <path class="st0" d="M63.87,85.5l23.46-37.69c.74-1.17-.11-2.65-1.49-2.65h-16.99c-.64,0-1.27.32-1.59.85l-24.1,38.54c-.64.96.11,2.23,1.27,2.23h17.31c.85,0,1.7-.42,2.12-1.27Z"/>
</svg>